<svg width="24" height="24" viewBox="0 0 24 24" fill="none" xmlns="http://www.w3.org/2000/svg">
    <path d="M12 22.75C6.07 22.75 1.25 17.93 1.25 12C1.25 6.07 6.07 1.25 12 1.25C17.93 1.25 22.75 6.07 22.75 12C22.75 17.93 17.93 22.75 12 22.75ZM12 2.75C6.9 2.75 2.75 6.9 2.75 12C2.75 17.1 6.9 21.25 12 21.25C17.1 21.25 21.25 17.1 21.25 12C21.25 6.9 17.1 2.75 12 2.75Z" fill="#101828"/>
    <path d="M8.99828 21.75H7.99828C7.58828 21.75 7.24828 21.41 7.24828 21C7.24828 20.59 7.56828 20.26 7.97828 20.25C6.40828 14.89 6.40828 9.11 7.97828 3.75C7.56828 3.74 7.24828 3.41 7.24828 3C7.24828 2.59 7.58828 2.25 7.99828 2.25H8.99828C9.23828 2.25 9.46828 2.37 9.60828 2.56C9.74828 2.76 9.78828 3.01 9.70828 3.24C7.82828 8.89 7.82828 15.11 9.70828 20.77C9.78828 21 9.74828 21.25 9.60828 21.45C9.46828 21.63 9.23828 21.75 8.99828 21.75Z" fill="#101828"/>
    <path d="M14.9984 21.7502C14.9184 21.7502 14.8384 21.7402 14.7584 21.7102C14.3684 21.5802 14.1484 21.1502 14.2884 20.7602C16.1684 15.1102 16.1684 8.89018 14.2884 3.23018C14.1584 2.84018 14.3684 2.41018 14.7584 2.28018C15.1584 2.15018 15.5784 2.36018 15.7084 2.75018C17.6984 8.71018 17.6984 15.2702 15.7084 21.2202C15.6084 21.5502 15.3084 21.7502 14.9984 21.7502Z" fill="#101828"/>
    <path d="M12 17.1998C9.21 17.1998 6.43 16.8098 3.75 16.0198C3.74 16.4198 3.41 16.7498 3 16.7498C2.59 16.7498 2.25 16.4098 2.25 15.9998V14.9998C2.25 14.7598 2.37 14.5298 2.56 14.3898C2.76 14.2498 3.01 14.2098 3.24 14.2898C8.89 16.1698 15.12 16.1698 20.77 14.2898C21 14.2098 21.25 14.2498 21.45 14.3898C21.65 14.5298 21.76 14.7598 21.76 14.9998V15.9998C21.76 16.4098 21.42 16.7498 21.01 16.7498C20.6 16.7498 20.27 16.4298 20.26 16.0198C17.57 16.8098 14.79 17.1998 12 17.1998Z" fill="#101828"/>
    <path d="M20.9998 9.74986C20.9198 9.74986 20.8398 9.73986 20.7598 9.70986C15.1098 7.82986 8.87978 7.82986 3.22978 9.70986C2.82978 9.83986 2.40978 9.62986 2.27978 9.23986C2.15978 8.83986 2.36978 8.41986 2.75978 8.28986C8.71978 6.29986 15.2798 6.29986 21.2298 8.28986C21.6198 8.41986 21.8398 8.84986 21.6998 9.23986C21.6098 9.54986 21.3098 9.74986 20.9998 9.74986Z" fill="#101828"/>
</svg>
