<svg width="48" height="48" viewBox="0 0 48 48" fill="none" xmlns="http://www.w3.org/2000/svg">
<rect width="48" height="48" rx="10" fill="#155EEF"/>
<path d="M20 14V17" stroke="white" stroke-width="1.5" stroke-miterlimit="10" stroke-linecap="round" stroke-linejoin="round"/>
<path d="M28 14V17" stroke="white" stroke-width="1.5" stroke-miterlimit="10" stroke-linecap="round" stroke-linejoin="round"/>
<path d="M33 20.5V25.63C32.11 24.92 30.98 24.5 29.75 24.5C28.52 24.5 27.37 24.93 26.47 25.66C25.26 26.61 24.5 28.1 24.5 29.75C24.5 30.73 24.78 31.67 25.26 32.45C25.63 33.06 26.11 33.59 26.68 34H20C16.5 34 15 32 15 29V20.5C15 17.5 16.5 15.5 20 15.5H28C31.5 15.5 33 17.5 33 20.5Z" stroke="white" stroke-width="1.5" stroke-miterlimit="10" stroke-linecap="round" stroke-linejoin="round"/>
<path d="M19 23H25" stroke="white" stroke-width="1.5" stroke-miterlimit="10" stroke-linecap="round" stroke-linejoin="round"/>
<path d="M19 28H21.62" stroke="white" stroke-width="1.5" stroke-miterlimit="10" stroke-linecap="round" stroke-linejoin="round"/>
<path d="M35 29.75C35 30.73 34.72 31.67 34.24 32.45C33.96 32.93 33.61 33.35 33.2 33.69C32.28 34.51 31.08 35 29.75 35C28.6 35 27.54 34.63 26.68 34C26.11 33.59 25.63 33.06 25.26 32.45C24.78 31.67 24.5 30.73 24.5 29.75C24.5 28.1 25.26 26.61 26.47 25.66C27.37 24.93 28.52 24.5 29.75 24.5C30.98 24.5 32.11 24.92 33 25.63C34.22 26.59 35 28.08 35 29.75Z" stroke="white" stroke-width="1.5" stroke-miterlimit="10" stroke-linecap="round" stroke-linejoin="round"/>
<path d="M29.75 32.25C29.75 30.87 30.87 29.75 32.25 29.75C30.87 29.75 29.75 28.63 29.75 27.25C29.75 28.63 28.63 29.75 27.25 29.75C28.63 29.75 29.75 30.87 29.75 32.25Z" stroke="white" stroke-width="1.5" stroke-linecap="round" stroke-linejoin="round"/>
</svg>
