<?xml version="1.0" standalone="no"?>
<!DOCTYPE svg PUBLIC "-//W3C//DTD SVG 20010904//EN"
 "http://www.w3.org/TR/2001/REC-SVG-20010904/DTD/svg10.dtd">
<svg version="1.0" xmlns="http://www.w3.org/2000/svg"
 width="700.000000pt" height="700.000000pt" viewBox="0 0 700.000000 700.000000"
 preserveAspectRatio="xMidYMid meet">
<metadata>
Created by potrace 1.14, written by Peter Selinger 2001-2017
</metadata>
<g transform="translate(0.000000,700.000000) scale(0.100000,-0.100000)"
fill="#000000" stroke="none">
<path d="M3178 6215 c-777 -95 -1488 -525 -1927 -1165 -40 -58 -73 -91 -146
-145 -476 -356 -826 -856 -989 -1413 -286 -978 -23 -2013 693 -2722 378 -374
836 -618 1381 -736 121 -26 138 -27 503 -31 415 -5 471 0 705 57 631 155 1193
538 1572 1075 59 83 93 120 139 153 160 112 359 298 495 461 318 382 510 802
598 1306 l23 130 0 1110 0 1110 -23 79 c-71 247 -215 447 -416 580 -93 62
-166 96 -286 134 l-85 27 -1065 2 c-827 1 -1089 -2 -1172 -12z m-223 -2838
c165 -394 305 -724 310 -733 8 -11 83 163 311 718 l300 733 337 3 337 2 0
-1060 0 -1060 -275 0 -275 0 -2 657 -3 657 -244 -657 -244 -657 -242 0 -242 0
-244 654 -244 655 -3 -655 -2 -654 -280 0 -280 0 0 1060 0 1060 342 -2 342 -3
301 -718z"/>
</g>
</svg>
