<svg width="62" height="62" viewBox="0 0 62 62" fill="none" xmlns="http://www.w3.org/2000/svg">
    <rect x="15.0294" y="0.606079" width="48" height="48" rx="10" transform="rotate(15 15.0294 0.606079)" fill="#004EEB"/>
    <g filter="url(#filter0_b_60_4150)">
        <rect y="14" width="48" height="48" rx="10" fill="white" fill-opacity="0.6"/>
        <rect x="0.5" y="14.5" width="47" height="47" rx="9.5" stroke="white" stroke-opacity="0.6"/>
        <g clip-path="url(#clip0_60_4150)">
            <path d="M31.79 33.27L28.76 30.24C27.61 29.09 26.04 29.15 25.27 30.38L23.58 33.05L28.98 38.45L31.65 36.76C32.8 36.03 32.87 34.35 31.79 33.27Z" stroke="white" stroke-width="1.5" stroke-linecap="round" stroke-linejoin="round"/>
            <path d="M23.58 33.05L19.65 32.81C17.46 32.68 16.69 33.35 16.45 35.44L15.47 43.76C15.26 45.51 16.53 46.77 18.27 46.56L26.59 45.58C28.68 45.33 29.44 44.57 29.22 42.38L28.99 38.45" stroke="white" stroke-width="1.5" stroke-linecap="round" stroke-linejoin="round"/>
            <path d="M16.61 45.42L19.64 42.38" stroke="white" stroke-width="1.5" stroke-linecap="round" stroke-linejoin="round"/>
        </g>
    </g>
    <defs>
        <filter id="filter0_b_60_4150" x="-16" y="-2" width="80" height="80" filterUnits="userSpaceOnUse" color-interpolation-filters="sRGB">
            <feFlood flood-opacity="0" result="BackgroundImageFix"/>
            <feGaussianBlur in="BackgroundImageFix" stdDeviation="8"/>
            <feComposite in2="SourceAlpha" operator="in" result="effect1_backgroundBlur_60_4150"/>
            <feBlend mode="normal" in="SourceGraphic" in2="effect1_backgroundBlur_60_4150" result="shape"/>
        </filter>
        <clipPath id="clip0_60_4150">
            <rect width="24" height="24" fill="white" transform="translate(12 26)"/>
        </clipPath>
    </defs>
</svg>
