<svg width="62" height="62" viewBox="0 0 62 62" fill="none" xmlns="http://www.w3.org/2000/svg">
    <rect x="15.0294" y="0.606079" width="48" height="48" rx="10" transform="rotate(15 15.0294 0.606079)" fill="#004EEB"/>
    <g filter="url(#filter0_b_60_4087)">
        <rect y="14" width="48" height="48" rx="10" fill="white" fill-opacity="0.6"/>
        <rect x="0.5" y="14.5" width="47" height="47" rx="9.5" stroke="white" stroke-opacity="0.6"/>
        <path d="M15.01 37.22V41.71C15.01 46.2 16.81 48 21.3 48H26.69C31.18 48 32.98 46.2 32.98 41.71V37.22" stroke="white" stroke-width="1.5" stroke-linecap="round" stroke-linejoin="round"/>
        <path d="M24 38C25.83 38 27.18 36.51 27 34.68L26.34 28H21.67L21 34.68C20.82 36.51 22.17 38 24 38Z" stroke="white" stroke-width="1.5" stroke-linecap="round" stroke-linejoin="round"/>
        <path d="M30.31 38C32.33 38 33.81 36.36 33.61 34.35L33.33 31.6C32.97 29 31.97 28 29.35 28H26.3L27 35.01C27.17 36.66 28.66 38 30.31 38Z" stroke="white" stroke-width="1.5" stroke-linecap="round" stroke-linejoin="round"/>
        <path d="M17.64 38C19.29 38 20.78 36.66 20.94 35.01L21.16 32.8L21.64 28H18.59C15.97 28 14.97 29 14.61 31.6L14.34 34.35C14.14 36.36 15.62 38 17.64 38Z" stroke="white" stroke-width="1.5" stroke-linecap="round" stroke-linejoin="round"/>
        <path d="M24 43C22.33 43 21.5 43.83 21.5 45.5V48H26.5V45.5C26.5 43.83 25.67 43 24 43Z" stroke="white" stroke-width="1.5" stroke-linecap="round" stroke-linejoin="round"/>
    </g>
    <defs>
        <filter id="filter0_b_60_4087" x="-16" y="-2" width="80" height="80" filterUnits="userSpaceOnUse" color-interpolation-filters="sRGB">
            <feFlood flood-opacity="0" result="BackgroundImageFix"/>
            <feGaussianBlur in="BackgroundImageFix" stdDeviation="8"/>
            <feComposite in2="SourceAlpha" operator="in" result="effect1_backgroundBlur_60_4087"/>
            <feBlend mode="normal" in="SourceGraphic" in2="effect1_backgroundBlur_60_4087" result="shape"/>
        </filter>
    </defs>
</svg>
