<svg width="62" height="62" viewBox="0 0 62 62" fill="none" xmlns="http://www.w3.org/2000/svg">
    <rect x="15.0294" y="0.606079" width="48" height="48" rx="10" transform="rotate(15 15.0294 0.606079)" fill="#004EEB"/>
    <g filter="url(#filter0_b_60_4058)">
        <rect y="14" width="48" height="48" rx="10" fill="white" fill-opacity="0.6"/>
        <rect x="0.5" y="14.5" width="47" height="47" rx="9.5" stroke="white" stroke-opacity="0.6"/>
        <path d="M32 33V43C32 47 31 48 27 48H21C17 48 16 47 16 43V33C16 29 17 28 21 28H27C31 28 32 29 32 33Z" stroke="#FCFCFD" stroke-width="1.5" stroke-linecap="round" stroke-linejoin="round"/>
        <path d="M26 31.5H22" stroke="#FCFCFD" stroke-width="1.5" stroke-linecap="round" stroke-linejoin="round"/>
        <path d="M24 45.1C24.856 45.1 25.55 44.406 25.55 43.55C25.55 42.694 24.856 42 24 42C23.144 42 22.45 42.694 22.45 43.55C22.45 44.406 23.144 45.1 24 45.1Z" stroke="#FCFCFD" stroke-width="1.5" stroke-linecap="round" stroke-linejoin="round"/>
    </g>
    <defs>
        <filter id="filter0_b_60_4058" x="-16" y="-2" width="80" height="80" filterUnits="userSpaceOnUse" color-interpolation-filters="sRGB">
            <feFlood flood-opacity="0" result="BackgroundImageFix"/>
            <feGaussianBlur in="BackgroundImageFix" stdDeviation="8"/>
            <feComposite in2="SourceAlpha" operator="in" result="effect1_backgroundBlur_60_4058"/>
            <feBlend mode="normal" in="SourceGraphic" in2="effect1_backgroundBlur_60_4058" result="shape"/>
        </filter>
    </defs>
</svg>
