<svg width="56" height="56" viewBox="0 0 56 56" fill="none" xmlns="http://www.w3.org/2000/svg">
    <rect width="56" height="56" rx="12" fill="#1570EF"/>
    <path d="M36.1666 24.5C36.1666 26.1917 35.665 27.7434 34.8016 29.0384C33.5416 30.9051 31.5466 32.2234 29.225 32.5617C28.8283 32.6317 28.42 32.6667 28 32.6667C27.58 32.6667 27.1716 32.6317 26.775 32.5617C24.4533 32.2234 22.4583 30.9051 21.1983 29.0384C20.335 27.7434 19.8333 26.1917 19.8333 24.5C19.8333 19.985 23.485 16.3334 28 16.3334C32.515 16.3334 36.1666 19.985 36.1666 24.5Z" stroke="white" stroke-width="1.5" stroke-linecap="round" stroke-linejoin="round"/>
    <path d="M38.7917 35.5484L36.8667 36.0034C36.435 36.1084 36.0967 36.4351 36.0033 36.8667L35.595 38.5817C35.3733 39.5151 34.1833 39.7951 33.565 39.0601L28 32.6667L22.435 39.0717C21.8167 39.8067 20.6267 39.5267 20.405 38.5934L19.9967 36.8784C19.8917 36.4467 19.5533 36.1084 19.1333 36.0151L17.2083 35.5601C16.3217 35.3501 16.0067 34.2417 16.6483 33.6L21.1983 29.05C22.4583 30.9167 24.4533 32.2351 26.775 32.5734C27.1717 32.6434 27.58 32.6784 28 32.6784C28.42 32.6784 28.8283 32.6434 29.225 32.5734C31.5467 32.2351 33.5417 30.9167 34.8017 29.05L39.3517 33.6C39.9933 34.23 39.6783 35.3384 38.7917 35.5484Z" stroke="white" stroke-width="1.5" stroke-linecap="round" stroke-linejoin="round"/>
    <path d="M28.6767 20.9766L29.365 22.3533C29.4583 22.54 29.7033 22.7266 29.925 22.7616L31.1733 22.9716C31.9667 23.0999 32.1533 23.6833 31.5817 24.255L30.6133 25.2233C30.45 25.3866 30.3567 25.7016 30.415 25.935L30.695 27.1366C30.9167 28.0816 30.415 28.4549 29.575 27.9533L28.4083 27.2649C28.1983 27.1366 27.8483 27.1366 27.6383 27.2649L26.4717 27.9533C25.6317 28.4433 25.13 28.0816 25.3517 27.1366L25.6317 25.935C25.6783 25.7133 25.5967 25.3866 25.4333 25.2233L24.465 24.255C23.8933 23.6833 24.08 23.1116 24.8733 22.9716L26.1217 22.7616C26.3317 22.7266 26.5767 22.54 26.67 22.3533L27.3583 20.9766C27.6967 20.23 28.3033 20.23 28.6767 20.9766Z" stroke="white" stroke-width="1.5" stroke-linecap="round" stroke-linejoin="round"/>
</svg>
