<svg width="62" height="62" viewBox="0 0 62 62" fill="none" xmlns="http://www.w3.org/2000/svg">
    <rect x="15.0294" y="0.606079" width="48" height="48" rx="10" transform="rotate(15 15.0294 0.606079)" fill="#004EEB"/>
    <g filter="url(#filter0_b_60_4065)">
        <rect y="14" width="48" height="48" rx="10" fill="white" fill-opacity="0.6"/>
        <rect x="0.5" y="14.5" width="47" height="47" rx="9.5" stroke="white" stroke-opacity="0.6"/>
        <path d="M34 36.9V30.1C34 28.6 33.36 28 31.77 28H27.73C26.14 28 25.5 28.6 25.5 30.1V36.9C25.5 38.4 26.14 39 27.73 39H31.77C33.36 39 34 38.4 34 36.9Z" stroke="white" stroke-width="1.5" stroke-linecap="round" stroke-linejoin="round"/>
        <path d="M34 45.9V44.1C34 42.6 33.36 42 31.77 42H27.73C26.14 42 25.5 42.6 25.5 44.1V45.9C25.5 47.4 26.14 48 27.73 48H31.77C33.36 48 34 47.4 34 45.9Z" stroke="white" stroke-width="1.5" stroke-linecap="round" stroke-linejoin="round"/>
        <path d="M22.5 39.1V45.9C22.5 47.4 21.86 48 20.27 48H16.23C14.64 48 14 47.4 14 45.9V39.1C14 37.6 14.64 37 16.23 37H20.27C21.86 37 22.5 37.6 22.5 39.1Z" stroke="white" stroke-width="1.5" stroke-linecap="round" stroke-linejoin="round"/>
        <path d="M22.5 30.1V31.9C22.5 33.4 21.86 34 20.27 34H16.23C14.64 34 14 33.4 14 31.9V30.1C14 28.6 14.64 28 16.23 28H20.27C21.86 28 22.5 28.6 22.5 30.1Z" stroke="white" stroke-width="1.5" stroke-linecap="round" stroke-linejoin="round"/>
    </g>
    <defs>
        <filter id="filter0_b_60_4065" x="-16" y="-2" width="80" height="80" filterUnits="userSpaceOnUse" color-interpolation-filters="sRGB">
            <feFlood flood-opacity="0" result="BackgroundImageFix"/>
            <feGaussianBlur in="BackgroundImageFix" stdDeviation="8"/>
            <feComposite in2="SourceAlpha" operator="in" result="effect1_backgroundBlur_60_4065"/>
            <feBlend mode="normal" in="SourceGraphic" in2="effect1_backgroundBlur_60_4065" result="shape"/>
        </filter>
    </defs>
</svg>
