<svg width="48" height="48" viewBox="0 0 48 48" fill="none" xmlns="http://www.w3.org/2000/svg">
    <rect width="48" height="48" rx="10" fill="#1570EF"/>
    <path d="M22.75 14.4498C23.44 13.8598 24.57 13.8598 25.27 14.4498L26.85 15.8099C27.15 16.0699 27.71 16.2799 28.11 16.2799H29.81C30.87 16.2799 31.74 17.1498 31.74 18.2098V19.9099C31.74 20.2999 31.95 20.8699 32.21 21.1699L33.57 22.7499C34.16 23.4399 34.16 24.5699 33.57 25.2699L32.21 26.8498C31.95 27.1498 31.74 27.7099 31.74 28.1099V29.8099C31.74 30.8699 30.87 31.7399 29.81 31.7399H28.11C27.72 31.7399 27.15 31.9498 26.85 32.2098L25.27 33.5698C24.58 34.1598 23.45 34.1598 22.75 33.5698L21.17 32.2098C20.87 31.9498 20.31 31.7399 19.91 31.7399H18.18C17.12 31.7399 16.25 30.8699 16.25 29.8099V28.0998C16.25 27.7098 16.04 27.1498 15.79 26.8498L14.44 25.2599C13.86 24.5699 13.86 23.4499 14.44 22.7599L15.79 21.1699C16.04 20.8699 16.25 20.3099 16.25 19.9199V18.2098C16.25 17.1498 17.12 16.2799 18.18 16.2799H19.91C20.3 16.2799 20.87 16.0699 21.17 15.8099L22.75 14.4498Z" stroke="white" stroke-width="1.5" stroke-linecap="round" stroke-linejoin="round"/>
    <path d="M21.89 26.82L23.34 27.94C23.53 28.13 23.95 28.22 24.23 28.22H26C26.56 28.22 27.17 27.8 27.31 27.24L28.43 23.82C28.66 23.17 28.24 22.6 27.54 22.6H25.67C25.39 22.6 25.16 22.3701 25.2 22.0401L25.43 20.5401C25.52 20.1201 25.24 19.65 24.82 19.51C24.45 19.37 23.98 19.56 23.79 19.84L21.87 22.69" stroke="white" stroke-width="1.5" stroke-miterlimit="10"/>
    <path d="M19.5 26.8201V22.2401C19.5 21.5801 19.78 21.3501 20.44 21.3501H20.91C21.56 21.3501 21.85 21.5801 21.85 22.2401V26.8201C21.85 27.4701 21.57 27.7101 20.91 27.7101H20.44C19.78 27.7101 19.5 27.4801 19.5 26.8201Z" stroke="white" stroke-width="1.5" stroke-linecap="round" stroke-linejoin="round"/>
</svg>
