<svg width="48" height="48" viewBox="0 0 48 48" fill="none" xmlns="http://www.w3.org/2000/svg">
    <rect width="48" height="48" rx="10" fill="#1570EF"/>
    <path d="M33.97 24C33.97 27.31 31.28 30 27.97 30C26.43 30 25.03 29.42 23.97 28.46C25.2 27.37 25.97 25.77 25.97 24C25.97 22.23 25.2 20.63 23.97 19.54C25.03 18.58 26.43 18 27.97 18C31.28 18 33.97 20.69 33.97 24Z" stroke="white" stroke-width="1.5" stroke-linecap="round" stroke-linejoin="round"/>
    <path d="M25.97 24C25.97 25.77 25.2 27.37 23.97 28.46C22.91 29.42 21.51 30 19.97 30C16.66 30 13.97 27.31 13.97 24C13.97 20.69 16.66 18 19.97 18C21.51 18 22.91 18.58 23.97 19.54C25.2 20.63 25.97 22.23 25.97 24Z" stroke="white" stroke-width="1.5" stroke-linecap="round" stroke-linejoin="round"/>
</svg>
