<svg width="62" height="62" viewBox="0 0 62 62" fill="none" xmlns="http://www.w3.org/2000/svg">
    <rect x="15.0294" y="0.606079" width="48" height="48" rx="10" transform="rotate(15 15.0294 0.606079)" fill="#004EEB"/>
    <g filter="url(#filter0_b_60_4142)">
        <rect y="14" width="48" height="48" rx="10" fill="white" fill-opacity="0.6"/>
        <rect x="0.5" y="14.5" width="47" height="47" rx="9.5" stroke="white" stroke-opacity="0.6"/>
        <path d="M32.91 37.12C32.91 42.01 29.36 46.59 24.51 47.93C24.18 48.02 23.82 48.02 23.49 47.93C18.64 46.59 15.09 42.01 15.09 37.12V32.73C15.09 31.91 15.71 30.98 16.48 30.67L22.05 28.3901C23.3 27.8801 24.71 27.8801 25.96 28.3901L31.53 30.67C32.29 30.98 32.92 31.91 32.92 32.73L32.91 37.12Z" stroke="white" stroke-width="1.5" stroke-linecap="round" stroke-linejoin="round"/>
    </g>
    <defs>
        <filter id="filter0_b_60_4142" x="-16" y="-2" width="80" height="80" filterUnits="userSpaceOnUse" color-interpolation-filters="sRGB">
            <feFlood flood-opacity="0" result="BackgroundImageFix"/>
            <feGaussianBlur in="BackgroundImageFix" stdDeviation="8"/>
            <feComposite in2="SourceAlpha" operator="in" result="effect1_backgroundBlur_60_4142"/>
            <feBlend mode="normal" in="SourceGraphic" in2="effect1_backgroundBlur_60_4142" result="shape"/>
        </filter>
    </defs>
</svg>
