<svg width="62" height="62" viewBox="0 0 62 62" fill="none" xmlns="http://www.w3.org/2000/svg">
    <rect x="15.0294" y="0.606201" width="48" height="48" rx="10" transform="rotate(15 15.0294 0.606201)" fill="#004EEB"/>
    <g filter="url(#filter0_b_60_4073)">
        <rect y="14" width="48" height="48" rx="10" fill="white" fill-opacity="0.6"/>
        <rect x="0.5" y="14.5" width="47" height="47" rx="9.5" stroke="white" stroke-opacity="0.6"/>
        <path d="M18.89 35C19.87 35.49 20.71 36.23 21.32 37.15C21.67 37.67 21.67 38.34 21.32 38.86C20.71 39.77 19.87 40.51 18.89 41" stroke="white" stroke-width="1.5" stroke-linecap="round" stroke-linejoin="round"/>
        <path d="M25 41H29" stroke="white" stroke-width="1.5" stroke-linecap="round" stroke-linejoin="round"/>
        <path d="M21 48H27C32 48 34 46 34 41V35C34 30 32 28 27 28H21C16 28 14 30 14 35V41C14 46 16 48 21 48Z" stroke="white" stroke-width="1.5" stroke-linecap="round" stroke-linejoin="round"/>
    </g>
    <defs>
        <filter id="filter0_b_60_4073" x="-16" y="-2" width="80" height="80" filterUnits="userSpaceOnUse" color-interpolation-filters="sRGB">
            <feFlood flood-opacity="0" result="BackgroundImageFix"/>
            <feGaussianBlur in="BackgroundImageFix" stdDeviation="8"/>
            <feComposite in2="SourceAlpha" operator="in" result="effect1_backgroundBlur_60_4073"/>
            <feBlend mode="normal" in="SourceGraphic" in2="effect1_backgroundBlur_60_4073" result="shape"/>
        </filter>
    </defs>
</svg>
