<svg width="48" height="48" viewBox="0 0 48 48" fill="none" xmlns="http://www.w3.org/2000/svg">
    <rect width="48" height="48" rx="10" fill="#1570EF"/>
    <path d="M27.39 17.21L28.8 20.03C28.99 20.42 29.5 20.79 29.93 20.87L32.48 21.29C34.11 21.56 34.49 22.74 33.32 23.92L31.33 25.91C31 26.24 30.81 26.89 30.92 27.36L31.49 29.82C31.94 31.76 30.9 32.52 29.19 31.5L26.8 30.08C26.37 29.82 25.65 29.82 25.22 30.08L22.83 31.5C21.12 32.51 20.08 31.76 20.53 29.82L21.1 27.36C21.21 26.9 21.02 26.25 20.69 25.91L18.7 23.92C17.53 22.75 17.91 21.57 19.54 21.29L22.09 20.87C22.52 20.8 23.03 20.42 23.22 20.03L24.63 17.21C25.38 15.68 26.62 15.68 27.39 17.21Z" stroke="white" stroke-width="1.5" stroke-linecap="round" stroke-linejoin="round"/>
    <path d="M20 17H14" stroke="white" stroke-width="1.5" stroke-linecap="round" stroke-linejoin="round"/>
    <path d="M17 31H14" stroke="white" stroke-width="1.5" stroke-linecap="round" stroke-linejoin="round"/>
    <path d="M15 24H14" stroke="white" stroke-width="1.5" stroke-linecap="round" stroke-linejoin="round"/>
</svg>
