<svg width="62" height="62" viewBox="0 0 62 62" fill="none" xmlns="http://www.w3.org/2000/svg">
    <rect x="15.0294" y="0.606201" width="48" height="48" rx="10" transform="rotate(15 15.0294 0.606201)" fill="#004EEB"/>
    <g filter="url(#filter0_b_60_4015)">
        <rect y="14" width="48" height="48" rx="10" fill="white" fill-opacity="0.6"/>
        <rect x="0.5" y="14.5" width="47" height="47" rx="9.5" stroke="white" stroke-opacity="0.6"/>
        <path fill-rule="evenodd" clip-rule="evenodd" d="M26.1631 30.2695C26.1626 29.7229 25.965 29.1948 25.6066 28.7821C25.2483 28.3694 24.7531 28.0998 24.212 28.0227C23.6708 27.9456 23.1201 28.0662 22.6607 28.3624C22.2013 28.6586 21.8641 29.1105 21.711 29.6352C21.5579 30.1599 21.5991 30.7222 21.8271 31.219C22.0551 31.7158 22.4546 32.1137 22.9523 32.3397C23.4499 32.5657 24.0124 32.6047 24.5365 32.4495C25.0606 32.2943 25.5111 31.9554 25.8055 31.4948C26.0397 31.1291 26.1638 30.7038 26.1631 30.2695ZM27.7799 46.8644L27.1115 43.7634C27.1092 43.7529 27.1077 43.7425 27.1064 43.7323L26.5439 40.5979L26.0873 37.4338C26.0848 37.4169 26.0838 37.3999 26.0842 37.3829C26.0721 37.0437 26.1773 36.7107 26.3819 36.44L26.3977 36.4207C26.6051 36.1579 26.8986 35.9768 27.2266 35.9096L27.245 35.9065C27.9967 35.7805 28.7378 35.5981 29.4621 35.3609C30.1698 35.107 30.8549 34.7939 31.51 34.425C31.6471 34.2948 31.7383 34.1237 31.7698 33.9374C31.8014 33.751 31.7716 33.5594 31.6849 33.3914C31.5977 33.2235 31.4555 33.0906 31.282 33.015C31.0983 32.935 30.8935 32.9168 30.6985 32.9632H30.6967C28.2626 33.7067 26.1268 34.115 23.9611 34.1303C21.7916 34.1456 19.6023 33.7674 17.0646 32.9381C16.8762 32.8963 16.6792 32.918 16.5044 33C16.3296 33.0819 16.1869 33.2194 16.0984 33.391C16.0076 33.5706 15.9786 33.7752 16.0158 33.973C16.048 34.1562 16.1373 34.3246 16.2709 34.4541C16.9256 34.8113 17.6076 35.116 18.3106 35.3651C19.0348 35.6005 19.7757 35.781 20.527 35.9051L20.5345 35.9065C20.8726 35.9768 21.1727 36.1696 21.3772 36.4478C21.5843 36.7286 21.6887 37.0721 21.6727 37.4206C21.6723 37.4312 21.6714 37.4417 21.6698 37.4522L21.2132 40.5979C21.2117 40.6088 21.2096 40.6196 21.207 40.6303C20.8325 42.7163 20.4737 44.8302 19.9963 46.8948C19.9629 47.0513 19.9722 47.2139 20.0232 47.3655C20.0901 47.5645 20.2222 47.7351 20.3982 47.8495C20.5742 47.964 20.7837 48.0156 20.9927 47.9959C21.2017 47.9763 21.398 47.8866 21.5496 47.7413C21.7012 47.5961 21.7992 47.4039 21.8278 47.1959C21.8293 47.1845 21.8314 47.1732 21.8341 47.1619L23.332 41.1237L23.3394 41.0985C23.3751 40.9788 23.4489 40.874 23.5495 40.8C23.6502 40.7259 23.7722 40.6867 23.8971 40.6881H23.8984C24.0274 40.6896 24.1521 40.7341 24.2527 40.8147C24.3534 40.8952 24.4242 41.0071 24.454 41.1325L25.9493 47.1613C25.9528 47.1753 25.9553 47.1896 25.9568 47.2039C25.9751 47.3273 26.018 47.4457 26.0829 47.552C26.1479 47.6584 26.2337 47.7507 26.335 47.8232C26.4364 47.8957 26.5514 47.9471 26.6731 47.9743C26.7947 48.0014 26.9206 48.0038 27.0433 47.9812C27.1659 47.9587 27.2827 47.9117 27.3867 47.843C27.4908 47.7743 27.5799 47.6854 27.6489 47.5815C27.7178 47.4776 27.7651 47.3609 27.7879 47.2384C27.8108 47.1158 27.8087 46.9899 27.7819 46.8682V46.8655L27.7799 46.8644Z" fill="white"/>
    </g>
    <defs>
        <filter id="filter0_b_60_4015" x="-16" y="-2" width="80" height="80" filterUnits="userSpaceOnUse" color-interpolation-filters="sRGB">
            <feFlood flood-opacity="0" result="BackgroundImageFix"/>
            <feGaussianBlur in="BackgroundImageFix" stdDeviation="8"/>
            <feComposite in2="SourceAlpha" operator="in" result="effect1_backgroundBlur_60_4015"/>
            <feBlend mode="normal" in="SourceGraphic" in2="effect1_backgroundBlur_60_4015" result="shape"/>
        </filter>
    </defs>
</svg>
