<svg width="20" height="20" viewBox="0 0 20 20" fill="none" xmlns="http://www.w3.org/2000/svg">
    <path d="M13.3346 5.83333C13.3346 5.05836 13.3346 4.67087 13.2495 4.35295C13.0183 3.49022 12.3444 2.81635 11.4817 2.58519C11.1638 2.5 10.7763 2.5 10.0013 2.5C9.22633 2.5 8.83884 2.5 8.52092 2.58519C7.65819 2.81635 6.98432 3.49022 6.75315 4.35295C6.66797 4.67087 6.66797 5.05836 6.66797 5.83333M10.668 14.5833H14.7513C14.9847 14.5833 15.1013 14.5833 15.1905 14.5379C15.2689 14.498 15.3326 14.4342 15.3726 14.3558C15.418 14.2667 15.418 14.15 15.418 13.9167V11.9167C15.418 11.6833 15.418 11.5666 15.3726 11.4775C15.3326 11.3991 15.2689 11.3354 15.1905 11.2954C15.1013 11.25 14.9847 11.25 14.7513 11.25H10.668C10.4346 11.25 10.3179 11.25 10.2288 11.2954C10.1504 11.3354 10.0867 11.3991 10.0467 11.4775C10.0013 11.5666 10.0013 11.6833 10.0013 11.9167V13.9167C10.0013 14.15 10.0013 14.2667 10.0467 14.3558C10.0867 14.4342 10.1504 14.498 10.2288 14.5379C10.3179 14.5833 10.4346 14.5833 10.668 14.5833ZM5.66797 17.5H14.3346C15.7348 17.5 16.4348 17.5 16.9696 17.2275C17.44 16.9878 17.8225 16.6054 18.0622 16.135C18.3346 15.6002 18.3346 14.9001 18.3346 13.5V9.83333C18.3346 8.4332 18.3346 7.73314 18.0622 7.19836C17.8225 6.72795 17.44 6.3455 16.9696 6.10582C16.4348 5.83333 15.7348 5.83333 14.3346 5.83333H5.66797C4.26784 5.83333 3.56777 5.83333 3.03299 6.10582C2.56259 6.3455 2.18014 6.72795 1.94045 7.19836C1.66797 7.73314 1.66797 8.4332 1.66797 9.83333V13.5C1.66797 14.9001 1.66797 15.6002 1.94045 16.135C2.18014 16.6054 2.56259 16.9878 3.03299 17.2275C3.56777 17.5 4.26784 17.5 5.66797 17.5Z" stroke="#98A2B3" stroke-width="1.67" stroke-linecap="round" stroke-linejoin="round"/>
</svg>
