<svg width="62" height="62" viewBox="0 0 62 62" fill="none" xmlns="http://www.w3.org/2000/svg">
    <path d="M12.4431 10.2655C13.8725 4.9308 19.3558 1.76497 24.6905 3.19439L51.7364 10.4413C57.0711 11.8707 60.2369 17.3541 58.8075 22.6888L51.5606 49.7347C50.1311 55.0694 44.6478 58.2352 39.3131 56.8058L12.2672 49.5588C6.93253 48.1294 3.76671 42.646 5.19613 37.3114L12.4431 10.2655Z" fill="#1570EF"/>
    <g filter="url(#filter0_b_354_25038)">
        <path d="M0 30C0 24.3995 0 21.5992 1.08993 19.4601C2.04867 17.5785 3.57847 16.0487 5.46009 15.0899C7.59921 14 10.3995 14 16 14H32C37.6005 14 40.4008 14 42.5399 15.0899C44.4215 16.0487 45.9513 17.5785 46.9101 19.4601C48 21.5992 48 24.3995 48 30V46C48 51.6005 48 54.4008 46.9101 56.5399C45.9513 58.4215 44.4215 59.9513 42.5399 60.9101C40.4008 62 37.6005 62 32 62H16C10.3995 62 7.59921 62 5.46009 60.9101C3.57847 59.9513 2.04867 58.4215 1.08993 56.5399C0 54.4008 0 51.6005 0 46V30Z" fill="white" fill-opacity="0.6"/>
        <path d="M0.5 30C0.5 27.1915 0.500389 25.1152 0.634581 23.4727C0.768297 21.8361 1.03237 20.6744 1.53544 19.6871C2.44624 17.8996 3.89955 16.4462 5.68709 15.5354C6.67441 15.0324 7.83613 14.7683 9.47274 14.6346C11.1152 14.5004 13.1915 14.5 16 14.5H32C34.8085 14.5 36.8848 14.5004 38.5273 14.6346C40.1639 14.7683 41.3256 15.0324 42.3129 15.5354C44.1004 16.4462 45.5538 17.8996 46.4646 19.6871C46.9676 20.6744 47.2317 21.8361 47.3654 23.4727C47.4996 25.1152 47.5 27.1915 47.5 30V46C47.5 48.8085 47.4996 50.8848 47.3654 52.5273C47.2317 54.1639 46.9676 55.3256 46.4646 56.3129C45.5538 58.1004 44.1004 59.5538 42.3129 60.4646C41.3256 60.9676 40.1639 61.2317 38.5273 61.3654C36.8848 61.4996 34.8085 61.5 32 61.5H16C13.1915 61.5 11.1152 61.4996 9.47274 61.3654C7.83613 61.2317 6.67442 60.9676 5.68709 60.4646C3.89955 59.5538 2.44624 58.1004 1.53544 56.3129C1.03237 55.3256 0.768297 54.1639 0.634581 52.5273C0.500389 50.8848 0.5 48.8085 0.5 46V30Z" stroke="white" stroke-opacity="0.6"/>
        <path d="M24 48.75C18.07 48.75 13.25 43.93 13.25 38C13.25 32.07 18.07 27.25 24 27.25C29.93 27.25 34.75 32.07 34.75 38C34.75 43.93 29.93 48.75 24 48.75ZM24 28.75C18.9 28.75 14.75 32.9 14.75 38C14.75 43.1 18.9 47.25 24 47.25C29.1 47.25 33.25 43.1 33.25 38C33.25 32.9 29.1 28.75 24 28.75Z" fill="white"/>
        <path d="M27.7106 41.93C27.5806 41.93 27.4506 41.9 27.3306 41.82L24.2306 39.97C23.4606 39.51 22.8906 38.5 22.8906 37.61V33.51C22.8906 33.1 23.2306 32.76 23.6406 32.76C24.0506 32.76 24.3906 33.1 24.3906 33.51V37.61C24.3906 37.97 24.6906 38.5 25.0006 38.68L28.1006 40.53C28.4606 40.74 28.5706 41.2 28.3606 41.56C28.2106 41.8 27.9606 41.93 27.7106 41.93Z" fill="white"/>
    </g>
    <defs>
        <filter id="filter0_b_354_25038" x="-16" y="-2" width="80" height="80" filterUnits="userSpaceOnUse" color-interpolation-filters="sRGB">
            <feFlood flood-opacity="0" result="BackgroundImageFix"/>
            <feGaussianBlur in="BackgroundImageFix" stdDeviation="8"/>
            <feComposite in2="SourceAlpha" operator="in" result="effect1_backgroundBlur_354_25038"/>
            <feBlend mode="normal" in="SourceGraphic" in2="effect1_backgroundBlur_354_25038" result="shape"/>
        </filter>
    </defs>
</svg>
