<svg width="62" height="62" viewBox="0 0 62 62" fill="none" xmlns="http://www.w3.org/2000/svg">
    <path d="M12.4431 10.2655C13.8725 4.9308 19.3558 1.76497 24.6905 3.19439L51.7364 10.4413C57.0711 11.8707 60.2369 17.3541 58.8075 22.6888L51.5606 49.7347C50.1311 55.0694 44.6478 58.2352 39.3131 56.8058L12.2672 49.5588C6.93253 48.1294 3.76671 42.646 5.19613 37.3114L12.4431 10.2655Z" fill="#1570EF"/>
    <g filter="url(#filter0_b_354_25044)">
        <path d="M0 30C0 24.3995 0 21.5992 1.08993 19.4601C2.04867 17.5785 3.57847 16.0487 5.46009 15.0899C7.59921 14 10.3995 14 16 14H32C37.6005 14 40.4008 14 42.5399 15.0899C44.4215 16.0487 45.9513 17.5785 46.9101 19.4601C48 21.5992 48 24.3995 48 30V46C48 51.6005 48 54.4008 46.9101 56.5399C45.9513 58.4215 44.4215 59.9513 42.5399 60.9101C40.4008 62 37.6005 62 32 62H16C10.3995 62 7.59921 62 5.46009 60.9101C3.57847 59.9513 2.04867 58.4215 1.08993 56.5399C0 54.4008 0 51.6005 0 46V30Z" fill="white" fill-opacity="0.6"/>
        <path d="M0.5 30C0.5 27.1915 0.500389 25.1152 0.634581 23.4727C0.768297 21.8361 1.03237 20.6744 1.53544 19.6871C2.44624 17.8996 3.89955 16.4462 5.68709 15.5354C6.67441 15.0324 7.83613 14.7683 9.47274 14.6346C11.1152 14.5004 13.1915 14.5 16 14.5H32C34.8085 14.5 36.8848 14.5004 38.5273 14.6346C40.1639 14.7683 41.3256 15.0324 42.3129 15.5354C44.1004 16.4462 45.5538 17.8996 46.4646 19.6871C46.9676 20.6744 47.2317 21.8361 47.3654 23.4727C47.4996 25.1152 47.5 27.1915 47.5 30V46C47.5 48.8085 47.4996 50.8848 47.3654 52.5273C47.2317 54.1639 46.9676 55.3256 46.4646 56.3129C45.5538 58.1004 44.1004 59.5538 42.3129 60.4646C41.3256 60.9676 40.1639 61.2317 38.5273 61.3654C36.8848 61.4996 34.8085 61.5 32 61.5H16C13.1915 61.5 11.1152 61.4996 9.47274 61.3654C7.83613 61.2317 6.67442 60.9676 5.68709 60.4646C3.89955 59.5538 2.44624 58.1004 1.53544 56.3129C1.03237 55.3256 0.768297 54.1639 0.634581 52.5273C0.500389 50.8848 0.5 48.8085 0.5 46V30Z" stroke="white" stroke-opacity="0.6"/>
        <path d="M24 48.75C23.59 48.75 23.25 48.41 23.25 48V46C23.25 45.59 23.59 45.25 24 45.25C24.41 45.25 24.75 45.59 24.75 46V48C24.75 48.41 24.41 48.75 24 48.75Z" fill="white"/>
        <path d="M24 44.75C23.59 44.75 23.25 44.41 23.25 44V42C23.25 41.59 23.59 41.25 24 41.25C24.41 41.25 24.75 41.59 24.75 42V44C24.75 44.41 24.41 44.75 24 44.75Z" fill="white"/>
        <path d="M24 40.75C23.59 40.75 23.25 40.41 23.25 40V37C23.25 32.73 26.73 29.25 31 29.25H34C34.41 29.25 34.75 29.59 34.75 30C34.75 30.41 34.41 30.75 34 30.75H31C27.55 30.75 24.75 33.55 24.75 37V40C24.75 40.41 24.41 40.75 24 40.75Z" fill="white"/>
        <path d="M24 40.75C23.59 40.75 23.25 40.41 23.25 40V37C23.25 33.55 20.45 30.75 17 30.75H14C13.59 30.75 13.25 30.41 13.25 30C13.25 29.59 13.59 29.25 14 29.25H17C21.27 29.25 24.75 32.73 24.75 37V40C24.75 40.41 24.41 40.75 24 40.75Z" fill="white"/>
        <path d="M16.0014 32.7499C15.8114 32.7499 15.6214 32.6799 15.4714 32.5299L13.4714 30.5299C13.1814 30.2399 13.1814 29.7599 13.4714 29.4699L15.4714 27.4699C15.7614 27.1799 16.2415 27.1799 16.5315 27.4699C16.8215 27.7599 16.8215 28.2399 16.5315 28.5299L15.0614 29.9999L16.5315 31.4699C16.8215 31.7599 16.8215 32.2399 16.5315 32.5299C16.3815 32.6799 16.1914 32.7499 16.0014 32.7499Z" fill="white"/>
        <path d="M32.0014 32.7499C31.8114 32.7499 31.6214 32.6799 31.4714 32.5299C31.1814 32.2399 31.1814 31.7599 31.4714 31.4699L32.9414 29.9999L31.4714 28.5299C31.1814 28.2399 31.1814 27.7599 31.4714 27.4699C31.7614 27.1799 32.2415 27.1799 32.5315 27.4699L34.5315 29.4699C34.8215 29.7599 34.8215 30.2399 34.5315 30.5299L32.5315 32.5299C32.3815 32.6799 32.1914 32.7499 32.0014 32.7499Z" fill="white"/>
    </g>
    <defs>
        <filter id="filter0_b_354_25044" x="-16" y="-2" width="80" height="80" filterUnits="userSpaceOnUse" color-interpolation-filters="sRGB">
            <feFlood flood-opacity="0" result="BackgroundImageFix"/>
            <feGaussianBlur in="BackgroundImageFix" stdDeviation="8"/>
            <feComposite in2="SourceAlpha" operator="in" result="effect1_backgroundBlur_354_25044"/>
            <feBlend mode="normal" in="SourceGraphic" in2="effect1_backgroundBlur_354_25044" result="shape"/>
        </filter>
    </defs>
</svg>
