<svg width="62" height="62" viewBox="0 0 62 62" fill="none" xmlns="http://www.w3.org/2000/svg">
    <path d="M12.4431 10.2655C13.8725 4.9308 19.3558 1.76497 24.6905 3.19439L51.7364 10.4413C57.0711 11.8707 60.2369 17.3541 58.8075 22.6888L51.5606 49.7347C50.1311 55.0694 44.6478 58.2352 39.3131 56.8058L12.2672 49.5588C6.93253 48.1294 3.76671 42.646 5.19613 37.3114L12.4431 10.2655Z" fill="#1570EF"/>
    <g filter="url(#filter0_b_354_25033)">
        <path d="M0 30C0 24.3995 0 21.5992 1.08993 19.4601C2.04867 17.5785 3.57847 16.0487 5.46009 15.0899C7.59921 14 10.3995 14 16 14H32C37.6005 14 40.4008 14 42.5399 15.0899C44.4215 16.0487 45.9513 17.5785 46.9101 19.4601C48 21.5992 48 24.3995 48 30V46C48 51.6005 48 54.4008 46.9101 56.5399C45.9513 58.4215 44.4215 59.9513 42.5399 60.9101C40.4008 62 37.6005 62 32 62H16C10.3995 62 7.59921 62 5.46009 60.9101C3.57847 59.9513 2.04867 58.4215 1.08993 56.5399C0 54.4008 0 51.6005 0 46V30Z" fill="white" fill-opacity="0.6"/>
        <path d="M0.5 30C0.5 27.1915 0.500389 25.1152 0.634581 23.4727C0.768297 21.8361 1.03237 20.6744 1.53544 19.6871C2.44624 17.8996 3.89955 16.4462 5.68709 15.5354C6.67441 15.0324 7.83613 14.7683 9.47274 14.6346C11.1152 14.5004 13.1915 14.5 16 14.5H32C34.8085 14.5 36.8848 14.5004 38.5273 14.6346C40.1639 14.7683 41.3256 15.0324 42.3129 15.5354C44.1004 16.4462 45.5538 17.8996 46.4646 19.6871C46.9676 20.6744 47.2317 21.8361 47.3654 23.4727C47.4996 25.1152 47.5 27.1915 47.5 30V46C47.5 48.8085 47.4996 50.8848 47.3654 52.5273C47.2317 54.1639 46.9676 55.3256 46.4646 56.3129C45.5538 58.1004 44.1004 59.5538 42.3129 60.4646C41.3256 60.9676 40.1639 61.2317 38.5273 61.3654C36.8848 61.4996 34.8085 61.5 32 61.5H16C13.1915 61.5 11.1152 61.4996 9.47274 61.3654C7.83613 61.2317 6.67442 60.9676 5.68709 60.4646C3.89955 59.5538 2.44624 58.1004 1.53544 56.3129C1.03237 55.3256 0.768297 54.1639 0.634581 52.5273C0.500389 50.8848 0.5 48.8085 0.5 46V30Z" stroke="white" stroke-opacity="0.6"/>
        <path d="M24 48.75C18.07 48.75 13.25 43.93 13.25 38C13.25 32.07 18.07 27.25 24 27.25C29.93 27.25 34.75 32.07 34.75 38C34.75 43.93 29.93 48.75 24 48.75ZM24 28.75C18.9 28.75 14.75 32.9 14.75 38C14.75 43.1 18.9 47.25 24 47.25C29.1 47.25 33.25 43.1 33.25 38C33.25 32.9 29.1 28.75 24 28.75Z" fill="white"/>
        <path d="M20.9983 47.75H19.9983C19.5883 47.75 19.2483 47.41 19.2483 47C19.2483 46.59 19.5683 46.26 19.9783 46.25C18.4083 40.89 18.4083 35.11 19.9783 29.75C19.5683 29.74 19.2483 29.41 19.2483 29C19.2483 28.59 19.5883 28.25 19.9983 28.25H20.9983C21.2383 28.25 21.4683 28.37 21.6083 28.56C21.7483 28.76 21.7883 29.01 21.7083 29.24C19.8283 34.89 19.8283 41.11 21.7083 46.77C21.7883 47 21.7483 47.25 21.6083 47.45C21.4683 47.63 21.2383 47.75 20.9983 47.75Z" fill="white"/>
        <path d="M26.9984 47.7499C26.9184 47.7499 26.8384 47.7399 26.7584 47.7099C26.3684 47.5799 26.1484 47.1499 26.2884 46.7599C28.1684 41.1099 28.1684 34.8899 26.2884 29.2299C26.1584 28.8399 26.3684 28.4099 26.7584 28.2799C27.1584 28.1499 27.5784 28.3599 27.7084 28.7499C29.6984 34.7099 29.6984 41.2699 27.7084 47.2199C27.6084 47.5499 27.3084 47.7499 26.9984 47.7499Z" fill="white"/>
        <path d="M24 43.2C21.21 43.2 18.43 42.81 15.75 42.02C15.74 42.42 15.41 42.75 15 42.75C14.59 42.75 14.25 42.41 14.25 42V41C14.25 40.76 14.37 40.53 14.56 40.39C14.76 40.25 15.01 40.21 15.24 40.29C20.89 42.17 27.12 42.17 32.77 40.29C33 40.21 33.25 40.25 33.45 40.39C33.65 40.53 33.76 40.76 33.76 41V42C33.76 42.41 33.42 42.75 33.01 42.75C32.6 42.75 32.27 42.43 32.26 42.02C29.57 42.81 26.79 43.2 24 43.2Z" fill="white"/>
        <path d="M32.9998 35.7501C32.9198 35.7501 32.8398 35.7401 32.7598 35.7101C27.1098 33.8301 20.8798 33.8301 15.2298 35.7101C14.8298 35.8401 14.4098 35.6301 14.2798 35.2401C14.1598 34.8401 14.3698 34.4201 14.7598 34.2901C20.7198 32.3001 27.2798 32.3001 33.2298 34.2901C33.6198 34.4201 33.8398 34.8501 33.6998 35.2401C33.6098 35.5501 33.3098 35.7501 32.9998 35.7501Z" fill="white"/>
    </g>
    <defs>
        <filter id="filter0_b_354_25033" x="-16" y="-2" width="80" height="80" filterUnits="userSpaceOnUse" color-interpolation-filters="sRGB">
            <feFlood flood-opacity="0" result="BackgroundImageFix"/>
            <feGaussianBlur in="BackgroundImageFix" stdDeviation="8"/>
            <feComposite in2="SourceAlpha" operator="in" result="effect1_backgroundBlur_354_25033"/>
            <feBlend mode="normal" in="SourceGraphic" in2="effect1_backgroundBlur_354_25033" result="shape"/>
        </filter>
    </defs>
</svg>
