<svg width="32" height="32" viewBox="0 0 32 32" fill="none" xmlns="http://www.w3.org/2000/svg">
    <g clip-path="url(#clip0_121_5355)">
        <path opacity="0.65" d="M16.0345 28.5C9.14052 28.5 3.5 22.9444 3.5 16C3.5 9.125 9.07089 3.5 16.0345 3.5H23.9034C26.4799 3.5 28.4994 5.58333 28.4994 8.08333V16C28.569 22.875 22.9285 28.5 16.0345 28.5Z" fill="#3F7DE0"/>
        <path opacity="0.5" d="M19.5 25C12.625 25 7 19.4444 7 12.5C7 5.625 12.5556 0 19.5 0H27.3472C29.9167 0.0694444 32 2.15278 32 4.65278V12.5694C32 19.4444 26.4444 25 19.5 25Z" fill="#00DFFC"/>
        <path opacity="0.7" d="M12.5348 32.1001C5.57103 32.1001 0 26.5445 0 19.6001C0 12.7251 5.57103 7.1001 12.5348 7.1001H20.4039C22.9805 7.1001 25 9.18343 25 11.6834V19.6001C25 26.5445 19.429 32.1001 12.5348 32.1001Z" fill="#377DFF"/>
        <path fill-rule="evenodd" clip-rule="evenodd" d="M20.8169 13.2539V22.9686H18.2796V16.8935L16.0242 22.9686H13.8281L11.5579 16.8796V22.9686H9.02051V13.2539H12.1217L14.9558 20.021L17.7306 13.2539H20.8169Z" fill="white"/>
    </g>
    <defs>
        <clipPath id="clip0_121_5355">
            <rect width="31.9306" height="32" fill="white"/>
        </clipPath>
    </defs>
</svg>
