<svg width="52" height="53" viewBox="0 0 52 53" fill="none" xmlns="http://www.w3.org/2000/svg">
    <g filter="url(#filter0_d_1272_56452)">
        <rect x="2" y="1.5" width="48" height="48" rx="10" fill="white"/>
        <rect x="2.5" y="2" width="47" height="47" rx="9.5" stroke="#EAECF0"/>
        <path
            d="M26 34.5L25.8999 34.3499C25.2053 33.308 24.858 32.787 24.3991 32.4098C23.9929 32.0759 23.5248 31.8254 23.0216 31.6726C22.4533 31.5 21.8271 31.5 20.5748 31.5H19.2C18.0799 31.5 17.5198 31.5 17.092 31.282C16.7157 31.0903 16.4097 30.7843 16.218 30.408C16 29.9802 16 29.4201 16 28.3V19.7C16 18.5799 16 18.0198 16.218 17.592C16.4097 17.2157 16.7157 16.9097 17.092 16.718C17.5198 16.5 18.0799 16.5 19.2 16.5H19.6C21.8402 16.5 22.9603 16.5 23.816 16.936C24.5686 17.3195 25.1805 17.9314 25.564 18.684C26 19.5397 26 20.6598 26 22.9M26 34.5V22.9M26 34.5L26.1001 34.3499C26.7947 33.308 27.142 32.787 27.6009 32.4098C28.0071 32.0759 28.4752 31.8254 28.9784 31.6726C29.5467 31.5 30.1729 31.5 31.4252 31.5H32.8C33.9201 31.5 34.4802 31.5 34.908 31.282C35.2843 31.0903 35.5903 30.7843 35.782 30.408C36 29.9802 36 29.4201 36 28.3V19.7C36 18.5799 36 18.0198 35.782 17.592C35.5903 17.2157 35.2843 16.9097 34.908 16.718C34.4802 16.5 33.9201 16.5 32.8 16.5H32.4C30.1598 16.5 29.0397 16.5 28.184 16.936C27.4314 17.3195 26.8195 17.9314 26.436 18.684C26 19.5397 26 20.6598 26 22.9"
            stroke="#344054" stroke-width="2" stroke-linecap="round" stroke-linejoin="round"/>
    </g>
    <defs>
        <filter id="filter0_d_1272_56452" x="0" y="0.5" width="52" height="52" filterUnits="userSpaceOnUse" color-interpolation-filters="sRGB">
            <feFlood flood-opacity="0" result="BackgroundImageFix"/>
            <feColorMatrix in="SourceAlpha" type="matrix" values="0 0 0 0 0 0 0 0 0 0 0 0 0 0 0 0 0 0 127 0" result="hardAlpha"/>
            <feOffset dy="1"/>
            <feGaussianBlur stdDeviation="1"/>
            <feColorMatrix type="matrix" values="0 0 0 0 0.0627451 0 0 0 0 0.0941176 0 0 0 0 0.156863 0 0 0 0.05 0"/>
            <feBlend mode="normal" in2="BackgroundImageFix" result="effect1_dropShadow_1272_56452"/>
            <feBlend mode="normal" in="SourceGraphic" in2="effect1_dropShadow_1272_56452" result="shape"/>
        </filter>
    </defs>
</svg>
